<svg xmlns="http://www.w3.org/2000/svg" width="275.593" height="275.593"><path d="M19.604 122.026l-.049.579c-.175 4.807 1.295 9.084 4.145 12.043 4.182 4.333 10.921 5.327 17.373 2.413l25.104-13.654 24.626 13.42.483.238c2.495 1.127 5.003 1.701 7.442 1.701 3.846 0 7.369-1.461 9.929-4.119 2.854-2.959 4.322-7.236 4.145-12.043l-3.307-28.227 18.561-19.067.569-.665c3.547-4.669 4.625-10.132 2.959-14.986-1.664-4.856-5.869-8.503-11.527-10.013L91.84 45.072 79.735 20.704l-.425-.73c-3.274-5.008-8.188-7.885-13.479-7.885-5.003 0-9.787 2.623-13.124 7.196l-14.699 25.77-25.1 4.214-.784.177C6.507 51.051 2.361 54.771.734 59.651-.89 64.53.205 69.998 3.737 74.642l19.13 19.732-3.263 27.652zm-4.664-56.35c-.588-.863-.63-1.4-.602-1.491.033-.091.392-.501 1.405-.845l31.36-5.267 17.392-30.602c.693-.859 1.223-1.041 1.332-1.041.101 0 .621.205 1.281 1.104L82.276 58.06l34.368 5.523c.927.292 1.319.642 1.365.697.014.124-.074.63-.597 1.4L94.451 89.275l4.023 34.1c0 .443-.042.784-.091 1.018a4.557 4.557 0 01-.999-.306l-31.211-17.005-31.209 17.005a4.332 4.332 0 01-.999.301 4.886 4.886 0 01-.091-1.013l4.025-34.1L14.94 65.676zM263.299 49.642l-28.218-4.574-12.102-24.369-.43-.726c-3.271-5.008-8.186-7.885-13.474-7.885-5.003 0-9.787 2.623-13.124 7.196l-14.701 25.77-25.1 4.214-.784.177c-5.614 1.605-9.764 5.325-11.388 10.205s-.531 10.347 3.001 14.991l19.131 19.732-3.263 27.652-.051.579c-.178 4.807 1.297 9.084 4.144 12.043 4.183 4.333 10.926 5.327 17.371 2.413l25.104-13.654 24.628 13.42.485.238c2.492 1.127 5.003 1.701 7.439 1.701 3.846 0 7.369-1.461 9.932-4.119 2.852-2.959 4.317-7.236 4.145-12.043l-3.31-28.227 18.562-19.067.569-.665c3.547-4.669 4.625-10.132 2.959-14.986-1.659-4.854-5.869-8.506-11.525-10.016zm-2.638 16.034l-22.966 23.595 4.027 34.1c0 .444-.047.784-.094 1.018a4.505 4.505 0 01-.998-.306l-31.214-17.004-31.204 17.004a4.575 4.575 0 01-.999.301 4.558 4.558 0 01-.093-1.013l4.022-34.1-22.962-23.599c-.588-.866-.63-1.4-.602-1.491.032-.091.392-.501 1.404-.845l31.363-5.267 17.389-30.602c.691-.859 1.224-1.041 1.335-1.041.099 0 .621.206 1.279 1.104l15.168 30.525 34.368 5.523c.929.292 1.321.642 1.367.698.022.123-.071.63-.59 1.4zM188.882 174.387l-28.212-4.574-12.107-24.367-.42-.732c-3.275-5.008-8.186-7.885-13.476-7.885-5.006 0-9.79 2.623-13.124 7.199l-14.701 25.767-25.104 4.219-.779.178c-5.61 1.601-9.759 5.32-11.383 10.197-1.631 4.882-.537 10.347 2.996 14.991l19.13 19.732-3.265 27.656-.046.579c-.178 4.808 1.295 9.082 4.142 12.041 4.187 4.341 10.931 5.32 17.378 2.413l25.104-13.651 24.618 13.418.481.233c2.497 1.134 5.008 1.703 7.443 1.703 3.851 0 7.37-1.465 9.932-4.116 2.852-2.959 4.322-7.233 4.145-12.041l-3.309-28.227 18.565-19.069.564-.663c3.547-4.672 4.63-10.137 2.959-14.99-1.66-4.85-5.865-8.504-11.531-10.011zm-2.632 16.04l-22.963 23.593 4.023 34.098c0 .452-.042.783-.089 1.021a4.853 4.853 0 01-.999-.308l-31.208-17.007-31.211 17.007a4.49 4.49 0 01-.999.299 5.009 5.009 0 01-.091-1.018l4.022-34.098-22.964-23.597c-.586-.868-.63-1.4-.603-1.494.04-.093.393-.504 1.407-.845l31.358-5.269 17.392-30.598c.693-.858 1.223-1.045 1.335-1.045.101 0 .621.205 1.279 1.105l15.17 30.523 34.363 5.525c.929.294 1.316.64 1.368.695.021.134-.068.638-.59 1.413z"/></svg>