<svg height="512" viewBox="0 0 24 24" width="512" xmlns="http://www.w3.org/2000/svg"><path d="M21.017 24a.507.507 0 01-.242-.062L17 21.851l-3.775 2.087c-.167.093-.374.082-.53-.029s-.236-.3-.206-.489l.727-4.455-3.074-3.15a.499.499 0 01.282-.843l4.228-.646 1.896-4.038c.165-.352.74-.352.905 0l1.896 4.038 4.228.646a.499.499 0 01.282.843l-3.074 3.15.727 4.455a.498.498 0 01-.495.58zM17 20.779c.083 0 .167.021.242.062l3.116 1.723-.602-3.688a.502.502 0 01.136-.43l2.57-2.635-3.529-.539a.5.5 0 01-.377-.282L17 11.677l-1.556 3.315a.5.5 0 01-.377.282l-3.529.539 2.57 2.635a.502.502 0 01.136.43l-.602 3.688 3.116-1.723a.487.487 0 01.242-.064zM11.017 14a.507.507 0 01-.242-.062L7 11.851l-3.775 2.087c-.167.093-.374.082-.53-.029s-.236-.3-.206-.489l.727-4.455-3.074-3.15a.5.5 0 01.282-.844l4.228-.646L6.548.287c.165-.352.74-.352.905 0l1.896 4.038 4.228.646a.5.5 0 01.281.844l-3.074 3.15.727 4.455a.498.498 0 01-.494.58zM7 10.779c.083 0 .167.021.242.062l3.116 1.723-.602-3.687a.502.502 0 01.136-.43l2.57-2.635-3.529-.539a.498.498 0 01-.377-.281L7 1.677 5.444 4.992a.498.498 0 01-.377.281l-3.529.539 2.57 2.635a.502.502 0 01.136.43l-.602 3.688 3.116-1.723A.497.497 0 017 10.779z"/></svg>