<svg aria-hidden="true" style="position:absolute;width:0;height:0" xmlns="http://www.w3.org/2000/svg" overflow="hidden"><defs><symbol id="good" viewBox="0 0 32 32"><path d="M2.276 14.17l-.006.067c-.02.558.15 1.055.481 1.398.486.503 1.268.619 2.017.28l2.915-1.585 2.86 1.558.056.028c.29.131.581.198.864.198.447 0 .856-.17 1.153-.478.331-.344.502-.84.481-1.398l-.384-3.278 2.155-2.214.066-.077c.412-.542.537-1.177.344-1.74s-.681-.987-1.338-1.163l-3.277-.531-1.406-2.83-.049-.085c-.38-.582-.951-.916-1.565-.916-.581 0-1.136.305-1.524.836L4.412 5.232l-2.915.489-.091.021C.754 5.928.272 6.36.083 6.927S.022 8.128.432 8.668l2.221 2.291-.379 3.211zm-.541-6.544c-.068-.1-.073-.163-.07-.173s.046-.058.163-.098l3.642-.612 2.02-3.554c.08-.1.142-.121.155-.121s.072.024.149.128l1.761 3.545 3.991.641a.409.409 0 01.159.081c.002.014-.009.073-.069.163l-2.666 2.74.467 3.96a.56.56 0 01-.011.118.518.518 0 01-.119-.037l.003.001-3.624-1.975-3.624 1.975a.467.467 0 01-.113.034h-.003a.537.537 0 01-.011-.109v-.009l.467-3.96-2.666-2.74zm28.839-1.862l-3.277-.531-1.405-2.83-.05-.084c-.38-.582-.951-.916-1.565-.916-.581 0-1.136.305-1.524.836l-1.707 2.992-2.915.489-.091.021c-.652.186-1.134.618-1.322 1.185s-.062 1.201.348 1.741l2.221 2.291-.379 3.211-.006.067c-.021.558.151 1.055.481 1.398.486.503 1.269.619 2.017.28l2.915-1.585 2.86 1.558.056.028c.289.131.581.198.864.198.447 0 .856-.17 1.153-.478.331-.344.501-.84.481-1.398l-.384-3.278L31.5 8.745l.066-.077c.412-.542.537-1.177.344-1.74s-.681-.988-1.338-1.163zm-.306 1.862l-2.667 2.74.468 3.96a.553.553 0 01-.011.118.474.474 0 01-.119-.037l.003.001-3.625-1.974-3.623 1.974a.467.467 0 01-.113.034l-.003.001a.51.51 0 01-.011-.107v-.011.001l.467-3.96-2.666-2.74c-.068-.101-.073-.163-.07-.173s.046-.058.163-.098l3.642-.612 2.019-3.554c.08-.1.142-.121.155-.121.012 0 .072.024.149.128l1.761 3.545 3.991.641a.409.409 0 01.159.081c.003.014-.008.073-.069.163zM21.933 20.25l-3.276-.531-1.406-2.829-.049-.085c-.38-.582-.951-.916-1.565-.916-.581 0-1.137.305-1.524.836l-1.707 2.992-2.915.49-.09.021c-.651.186-1.133.618-1.322 1.184s-.062 1.201.348 1.741l2.221 2.291-.379 3.211-.005.067c-.021.558.15 1.055.481 1.398.486.504 1.269.618 2.018.28l2.915-1.585 2.859 1.558.056.027c.29.132.582.198.864.198.447 0 .856-.17 1.153-.478.331-.344.502-.84.481-1.398l-.384-3.278 2.156-2.214.066-.077c.412-.543.538-1.177.344-1.741-.193-.563-.681-.987-1.339-1.162zm-.306 1.862l-2.666 2.74.467 3.959a.666.666 0 01-.01.119.602.602 0 01-.12-.037l.004.001-3.624-1.975-3.624 1.975a.467.467 0 01-.113.034h-.003a.55.55 0 01-.011-.111v-.008l.467-3.959-2.667-2.74c-.068-.101-.073-.163-.07-.173.005-.011.046-.059.163-.098l3.641-.612 2.02-3.553c.08-.1.142-.121.155-.121.012 0 .072.024.149.128l1.762 3.544 3.99.642a.394.394 0 01.159.081c.002.016-.008.074-.069.164z"/></symbol><symbol id="neutral" viewBox="0 0 32 32"><path d="M28.023 32a.675.675 0 01-.326-.084l.003.002-5.033-2.783-5.033 2.783c-.223.124-.499.109-.707-.039s-.315-.4-.275-.652l.969-5.94-4.099-4.2a.664.664 0 01.372-1.123h.004l5.637-.861 2.528-5.384c.22-.469.987-.469 1.207 0l2.528 5.384 5.637.861a.665.665 0 01.375 1.124l-4.099 4.2.969 5.94a.664.664 0 01-.655.773h-.005zm-5.356-4.295c.111 0 .223.028.323.083l4.155 2.297-.803-4.917a.663.663 0 01.181-.573l3.427-3.513-4.705-.719a.67.67 0 01-.501-.372l-.002-.004-2.075-4.417-2.075 4.42a.669.669 0 01-.499.375h-.004l-4.705.719 3.427 3.513a.668.668 0 01.181.577l.001-.004-.803 4.917 4.155-2.297a.636.636 0 01.322-.085h.001zm-7.978-9.038a.678.678 0 01-.326-.084l.003.002-5.033-2.783L4.3 18.585c-.223.124-.499.109-.707-.039s-.315-.4-.275-.652l.969-5.94-4.099-4.2A.667.667 0 01.56 6.629h.004l5.637-.861L8.729.384c.22-.469.987-.469 1.207 0l2.528 5.384 5.637.861a.668.668 0 01.375 1.126l-4.099 4.2.969 5.94a.664.664 0 01-.655.773h-.004zm-5.356-4.295c.111 0 .223.028.323.083l4.155 2.297-.803-4.916a.663.663 0 01.182-.573l3.427-3.513-4.705-.719a.664.664 0 01-.501-.371l-.002-.004-2.075-4.42-2.075 4.42a.667.667 0 01-.499.374h-.004l-4.705.719 3.427 3.513a.668.668 0 01.181.577l.001-.004-.803 4.917 4.155-2.297a.652.652 0 01.323-.084z"/></symbol><symbol id="bad" viewBox="0 0 32 32"><path d="M31.948 12.331a1.434 1.434 0 00-1.366-1.04H20.471L17.582 2.4l-.217-.664c-.001-.004-.004-.006-.004-.011A1.5 1.5 0 0016.714.9l-.007-.004-.019-.013a1.325 1.325 0 00-.177-.084l-.009-.003c-.026-.011-.051-.022-.078-.03-.016-.006-.031-.015-.047-.019-.032-.008-.062-.009-.093-.016a1.204 1.204 0 00-.145-.025l-.006-.001c-.038-.004-.075-.004-.113-.004-.057-.001-.113 0-.171.006-.032.004-.062.01-.093.016-.043.008-.086.01-.13.022-.023.006-.044.018-.067.026l-.021.008a1.483 1.483 0 00-.894.934l-.003.01-.005.012c-1.035 3.185-2.069 6.371-3.105 9.556H1.42a1.43 1.43 0 00-1.366 1.04c-.181.659.13 1.221.651 1.6l8.066 5.86L5.84 28.81l-.216.664c-.365 1.122 1.067 2.336 2.081 1.599l8.298-6.029 8.298 6.029c1.016.737 2.445-.477 2.081-1.599-1.048-3.229-2.098-6.456-3.147-9.684l8.066-5.86c.52-.378.831-.94.65-1.599zm-15.233 9.748c-.369-.268-1.06-.268-1.431 0l-5.609 4.076 2.12-6.522c.21-.644-.149-1.235-.651-1.599l-5.38-3.908h6.791c.652 0 1.169-.436 1.366-1.04l2.078-6.394 1.861 5.728c.072.222.143.443.216.664.196.603.714 1.04 1.366 1.04h6.791l-5.379 3.908c-.501.365-.861.955-.651 1.599l2.12 6.523-5.609-4.074z"/></symbol></defs></svg>